<svg width="197" height="55" viewBox="0 0 197 55" fill="none" xmlns="http://www.w3.org/2000/svg">
<rect x="1.06966" y="0.333333" width="195" height="53.9999" rx="5" fill="white"/>
<rect x="1.06966" y="0.333333" width="195" height="53.9999" rx="5" stroke="#DBDBDB" stroke-width="0.666667"/>
<path d="M46.0974 28.284C46.1122 27.1392 46.4162 26.0168 46.9813 25.0211C47.5464 24.0255 48.3542 23.1889 49.3295 22.5893C48.7099 21.7045 47.8926 20.9763 46.9424 20.4626C45.9921 19.9489 44.9352 19.6638 43.8556 19.6301C41.5525 19.3883 39.3197 21.0082 38.1461 21.0082C36.9497 21.0082 35.1428 19.6541 33.197 19.6941C31.9384 19.7348 30.7117 20.1008 29.6366 20.7564C28.5615 21.4121 27.6746 22.3351 27.0623 23.4354C24.4098 28.0278 26.3883 34.7771 28.9292 38.4893C30.2005 40.307 31.6862 42.3375 33.6302 42.2655C35.5326 42.1866 36.2431 41.0524 38.5394 41.0524C40.8144 41.0524 41.481 42.2655 43.4645 42.2197C45.5059 42.1866 46.792 40.3939 48.0187 38.5589C48.9321 37.2637 49.6349 35.8322 50.1012 34.3175C48.9152 33.8159 47.9032 32.9763 47.1912 31.9033C46.4792 30.8304 46.0988 29.5716 46.0974 28.284Z" fill="#161616"/>
<path d="M42.3511 17.1878C43.4641 15.8517 44.0125 14.1343 43.8797 12.4004C42.1793 12.579 40.6085 13.3917 39.4805 14.6766C38.9289 15.3043 38.5065 16.0345 38.2374 16.8256C37.9682 17.6166 37.8576 18.4529 37.9119 19.2868C38.7624 19.2955 39.6038 19.1112 40.3728 18.7476C41.1417 18.384 41.8181 17.8507 42.3511 17.1878Z" fill="#161616"/>
<path d="M63.0503 13.004H66.7043C68.3283 13.004 69.5463 13.452 70.3863 14.348C71.1843 15.188 71.5903 16.406 71.5903 18.002C71.5903 19.584 71.1843 20.802 70.3863 21.656C69.5463 22.552 68.3283 23 66.7043 23H63.0503V13.004ZM64.6883 14.404V21.6H66.3963C67.6423 21.6 68.5523 21.306 69.1263 20.732C69.6863 20.144 69.9663 19.234 69.9663 18.002C69.9663 16.742 69.6863 15.818 69.1263 15.258C68.5523 14.684 67.6423 14.404 66.3963 14.404H64.6883ZM76.3465 15.566C77.4385 15.566 78.3205 15.916 78.9925 16.644C79.6505 17.358 79.9865 18.268 79.9865 19.388C79.9865 20.494 79.6505 21.404 79.0065 22.104C78.3345 22.832 77.4385 23.196 76.3465 23.196C75.2405 23.196 74.3585 22.832 73.6865 22.104C73.0285 21.404 72.7065 20.494 72.7065 19.388C72.7065 18.268 73.0285 17.358 73.7005 16.644C74.3585 15.916 75.2405 15.566 76.3465 15.566ZM76.3465 16.868C75.6745 16.868 75.1705 17.12 74.8065 17.652C74.4985 18.1 74.3445 18.688 74.3445 19.388C74.3445 20.088 74.4985 20.662 74.8065 21.11C75.1705 21.628 75.6745 21.894 76.3465 21.894C77.0045 21.894 77.5225 21.628 77.8865 21.11C78.1945 20.648 78.3625 20.074 78.3625 19.388C78.3625 18.688 78.1945 18.1 77.8865 17.652C77.5225 17.12 77.0045 16.868 76.3465 16.868ZM80.611 15.762H82.375L83.817 21.11L85.245 15.762H86.715L88.143 21.11L89.585 15.762H91.349L88.913 23H87.429L85.987 17.708L84.531 23H83.047L80.611 15.762ZM96.0018 15.566C97.8078 15.566 98.7178 16.546 98.7178 18.534V23H97.1218V18.674C97.1218 17.484 96.5758 16.896 95.4838 16.896C95.0918 16.896 94.7418 17.036 94.4478 17.316C94.1118 17.624 93.9158 18.072 93.8598 18.646V23H92.2638V15.762H93.8598V16.602C94.1398 16.266 94.4618 16 94.8118 15.832C95.1758 15.65 95.5678 15.566 96.0018 15.566ZM100.539 12.808H102.135V23H100.539V12.808ZM107.313 15.566C108.405 15.566 109.287 15.916 109.959 16.644C110.617 17.358 110.953 18.268 110.953 19.388C110.953 20.494 110.617 21.404 109.973 22.104C109.301 22.832 108.405 23.196 107.313 23.196C106.207 23.196 105.325 22.832 104.653 22.104C103.995 21.404 103.673 20.494 103.673 19.388C103.673 18.268 103.995 17.358 104.667 16.644C105.325 15.916 106.207 15.566 107.313 15.566ZM107.313 16.868C106.641 16.868 106.137 17.12 105.773 17.652C105.465 18.1 105.311 18.688 105.311 19.388C105.311 20.088 105.465 20.662 105.773 21.11C106.137 21.628 106.641 21.894 107.313 21.894C107.971 21.894 108.489 21.628 108.853 21.11C109.161 20.648 109.329 20.074 109.329 19.388C109.329 18.688 109.161 18.1 108.853 17.652C108.489 17.12 107.971 16.868 107.313 16.868ZM115.638 15.566C116.702 15.566 117.5 15.832 118.004 16.364C118.452 16.826 118.676 17.498 118.676 18.38V23H117.192V22.048C116.912 22.412 116.562 22.678 116.156 22.874C115.694 23.084 115.148 23.196 114.518 23.196C113.762 23.196 113.174 23 112.74 22.622C112.292 22.23 112.068 21.74 112.068 21.138C112.068 20.326 112.376 19.696 113.02 19.262C113.608 18.842 114.434 18.618 115.498 18.59L117.08 18.548V18.268C117.08 17.316 116.562 16.854 115.526 16.854C115.078 16.854 114.728 16.924 114.462 17.092C114.154 17.274 113.944 17.554 113.86 17.932L112.278 17.806C112.432 17.008 112.824 16.42 113.454 16.056C113.986 15.72 114.714 15.566 115.638 15.566ZM117.08 19.696L115.61 19.738C114.336 19.766 113.706 20.214 113.706 21.082C113.706 21.334 113.804 21.544 114.028 21.712C114.252 21.88 114.532 21.978 114.882 21.978C115.498 21.978 116.016 21.796 116.436 21.446C116.856 21.082 117.08 20.62 117.08 20.06V19.696ZM125.512 12.808H127.108V23H125.624V22.23C125.12 22.874 124.392 23.196 123.44 23.196C122.362 23.196 121.522 22.818 120.92 22.062C120.36 21.362 120.08 20.452 120.08 19.346C120.08 18.282 120.346 17.4 120.906 16.7C121.494 15.944 122.32 15.566 123.356 15.566C124.196 15.566 124.91 15.958 125.512 16.756V12.808ZM123.734 16.854C123.006 16.854 122.488 17.092 122.152 17.568C121.858 17.974 121.718 18.562 121.718 19.346C121.718 20.13 121.844 20.732 122.124 21.152C122.446 21.656 122.964 21.908 123.678 21.908C124.294 21.908 124.784 21.656 125.12 21.166C125.414 20.718 125.568 20.13 125.568 19.43V19.318C125.568 18.548 125.372 17.932 125.008 17.484C124.672 17.064 124.238 16.854 123.734 16.854ZM136.804 15.566C137.896 15.566 138.778 15.916 139.45 16.644C140.108 17.358 140.444 18.268 140.444 19.388C140.444 20.494 140.108 21.404 139.464 22.104C138.792 22.832 137.896 23.196 136.804 23.196C135.698 23.196 134.816 22.832 134.144 22.104C133.486 21.404 133.164 20.494 133.164 19.388C133.164 18.268 133.486 17.358 134.158 16.644C134.816 15.916 135.698 15.566 136.804 15.566ZM136.804 16.868C136.132 16.868 135.628 17.12 135.264 17.652C134.956 18.1 134.802 18.688 134.802 19.388C134.802 20.088 134.956 20.662 135.264 21.11C135.628 21.628 136.132 21.894 136.804 21.894C137.462 21.894 137.98 21.628 138.344 21.11C138.652 20.648 138.82 20.074 138.82 19.388C138.82 18.688 138.652 18.1 138.344 17.652C137.98 17.12 137.462 16.868 136.804 16.868ZM145.576 15.566C147.382 15.566 148.292 16.546 148.292 18.534V23H146.696V18.674C146.696 17.484 146.15 16.896 145.058 16.896C144.666 16.896 144.316 17.036 144.022 17.316C143.686 17.624 143.49 18.072 143.434 18.646V23H141.838V15.762H143.434V16.602C143.714 16.266 144.036 16 144.386 15.832C144.75 15.65 145.142 15.566 145.576 15.566ZM156.903 13.424V15.762H158.513V17.078H156.903V21.166C156.903 21.334 156.931 21.46 157.015 21.558C157.099 21.642 157.211 21.684 157.379 21.684H158.331V23H157.113C156.483 23 156.021 22.832 155.727 22.496C155.447 22.188 155.307 21.754 155.307 21.166V17.078H154.005V15.762H155.307V14.082L156.903 13.424ZM159.707 12.808H161.303V16.728C161.569 16.322 161.905 16.028 162.297 15.832C162.647 15.65 163.053 15.566 163.515 15.566C164.397 15.566 165.055 15.818 165.489 16.336C165.895 16.826 166.105 17.554 166.105 18.52V23H164.509V18.8C164.509 18.184 164.383 17.708 164.145 17.386C163.865 17.036 163.459 16.868 162.913 16.868C162.409 16.868 162.017 17.064 161.737 17.456C161.443 17.848 161.303 18.338 161.303 18.954V23H159.707V12.808ZM170.867 15.566C172.057 15.566 172.967 15.958 173.597 16.77C174.171 17.498 174.465 18.52 174.465 19.822H169.047C169.103 20.494 169.285 21.012 169.593 21.362C169.901 21.712 170.349 21.894 170.923 21.894C171.413 21.894 171.805 21.782 172.113 21.558C172.351 21.376 172.561 21.082 172.757 20.676H174.353C174.185 21.348 173.849 21.922 173.345 22.37C172.701 22.916 171.903 23.196 170.937 23.196C169.859 23.196 169.005 22.86 168.375 22.202C167.703 21.516 167.367 20.578 167.367 19.374C167.367 18.296 167.675 17.4 168.319 16.672C168.935 15.93 169.789 15.566 170.867 15.566ZM170.909 16.868C170.377 16.868 169.971 17.008 169.663 17.316C169.369 17.61 169.173 18.044 169.075 18.618H172.799C172.659 17.442 172.029 16.868 170.909 16.868Z" fill="#EE6425"/>
<path d="M71.4814 39.0771H65.8247L64.4663 43.0883H62.0703L67.4282 28.248H69.9175L75.2755 43.0883H72.8387L71.4814 39.0771ZM66.4106 37.2262H70.8944L68.684 30.7164H68.6221L66.4106 37.2262Z" fill="#161616"/>
<path d="M86.8462 37.678C86.8462 41.0403 85.0466 43.2005 82.3309 43.2005C81.6429 43.2364 80.9587 43.078 80.3567 42.7432C79.7546 42.4084 79.259 41.9109 78.9266 41.3075H78.8752V46.6666H76.6543V32.2675H78.804V34.0671H78.8448C79.1926 33.4667 79.6965 32.9717 80.3032 32.6349C80.9098 32.298 81.5964 32.132 82.29 32.1543C85.0361 32.1544 86.8462 34.3251 86.8462 37.678ZM84.5634 37.678C84.5634 35.4874 83.4314 34.0473 81.7041 34.0473C80.0073 34.0473 78.8659 35.5178 78.8659 37.678C78.8659 39.858 80.0073 41.318 81.7041 41.318C83.4314 41.318 84.5634 39.8884 84.5634 37.678H84.5634Z" fill="#161616"/>
<path d="M98.7549 37.678C98.7549 41.0403 96.9548 43.2005 94.239 43.2005C93.5511 43.2364 92.8669 43.078 92.2649 42.7432C91.6628 42.4084 91.1672 41.9109 90.8348 41.3075H90.7834V46.6666H88.5625V32.2675H90.7122V34.0671H90.753C91.1008 33.4667 91.6047 32.9717 92.2114 32.6349C92.818 32.298 93.5046 32.132 94.1982 32.1543C96.9443 32.1544 98.7549 34.3251 98.7549 37.678ZM96.4716 37.678C96.4716 35.4874 95.3396 34.0473 93.6123 34.0473C91.9155 34.0473 90.7741 35.5178 90.7741 37.678C90.7741 39.858 91.9155 41.318 93.6123 41.318C95.3396 41.318 96.4716 39.8884 96.4716 37.678Z" fill="#161616"/>
<path d="M106.627 38.9528C106.792 40.4245 108.221 41.3907 110.175 41.3907C112.047 41.3907 113.394 40.4244 113.394 39.0975C113.394 37.9456 112.581 37.2559 110.658 36.7832L108.735 36.3199C106.01 35.6617 104.745 34.3873 104.745 32.3192C104.745 29.7587 106.976 28 110.143 28C113.28 28 115.43 29.7587 115.502 32.3192H113.26C113.126 30.8383 111.902 29.9443 110.113 29.9443C108.324 29.9443 107.1 30.8488 107.1 32.1652C107.1 33.2144 107.882 33.8317 109.794 34.3044L111.429 34.7058C114.474 35.4259 115.738 36.649 115.738 38.8197C115.738 41.5961 113.528 43.335 110.01 43.335C106.719 43.335 104.497 41.6369 104.354 38.9527L106.627 38.9528Z" fill="#161616"/>
<path d="M120.529 29.709V32.2695H122.587V34.0282H120.529V39.993C120.529 40.9196 120.941 41.3515 121.846 41.3515C122.09 41.3472 122.334 41.33 122.576 41.3001V43.0483C122.17 43.1243 121.756 43.1587 121.343 43.151C119.152 43.151 118.298 42.3282 118.298 40.2299V34.0282H116.725V32.2695H118.298V29.709H120.529Z" fill="#161616"/>
<path d="M123.779 37.6802C123.779 34.2759 125.784 32.1367 128.911 32.1367C132.048 32.1367 134.043 34.2759 134.043 37.6802C134.043 41.0938 132.058 43.2237 128.911 43.2237C125.764 43.2237 123.779 41.0938 123.779 37.6802ZM131.781 37.6802C131.781 35.3449 130.71 33.9667 128.911 33.9667C127.111 33.9667 126.041 35.3554 126.041 37.6802C126.041 40.0248 127.111 41.3926 128.911 41.3926C130.71 41.3926 131.781 40.0248 131.781 37.6802H131.781Z" fill="#161616"/>
<path d="M135.875 32.2674H137.993V34.109H138.045C138.188 33.5339 138.525 33.0256 138.999 32.6696C139.473 32.3136 140.055 32.1316 140.647 32.1542C140.903 32.1533 141.158 32.1811 141.408 32.2371V34.3144C141.085 34.2157 140.748 34.1704 140.41 34.1802C140.088 34.1671 139.766 34.224 139.467 34.347C139.169 34.4699 138.9 34.656 138.68 34.8925C138.461 35.129 138.294 35.4103 138.194 35.717C138.093 36.0238 138.059 36.3487 138.096 36.6695V43.0871H135.875L135.875 32.2674Z" fill="#161616"/>
<path d="M151.647 39.9116C151.348 41.8757 149.435 43.2237 146.988 43.2237C143.84 43.2237 141.887 41.1148 141.887 37.7315C141.887 34.3378 143.851 32.1367 146.895 32.1367C149.888 32.1367 151.77 34.1931 151.77 37.4736V38.2345H144.129V38.3688C144.093 38.7669 144.143 39.1681 144.275 39.5455C144.407 39.923 144.617 40.2681 144.892 40.558C145.168 40.8478 145.501 41.0758 145.872 41.2267C146.242 41.3777 146.64 41.4481 147.039 41.4334C147.564 41.4826 148.091 41.361 148.541 41.0868C148.991 40.8127 149.341 40.4005 149.538 39.9116L151.647 39.9116ZM144.139 36.6824H149.548C149.568 36.3243 149.514 35.966 149.389 35.63C149.264 35.2939 149.071 34.9873 148.821 34.7295C148.572 34.4716 148.272 34.2681 147.941 34.1316C147.609 33.9951 147.253 33.9286 146.895 33.9363C146.533 33.9341 146.174 34.0036 145.84 34.1408C145.505 34.2779 145.201 34.4799 144.945 34.7352C144.688 34.9905 144.485 35.294 144.347 35.6282C144.209 35.9624 144.138 36.3207 144.139 36.6824V36.6824Z" fill="#161616"/>
</svg>
