<svg width="531" height="430" viewBox="0 0 531 430" fill="none" xmlns="http://www.w3.org/2000/svg">
<path d="M5.775 7.006H8.379L14.154 22H11.697L10.29 18.136H3.843L2.436 22H0L5.775 7.006ZM4.536 16.246H9.597L7.119 9.463H7.035L4.536 16.246ZM20.2404 10.849C21.6264 10.849 22.7394 11.164 23.5794 11.794C24.4194 12.466 24.9654 13.474 25.1754 14.818H22.9704C22.8234 14.083 22.5294 13.537 22.0674 13.201C21.6054 12.844 20.9964 12.676 20.2404 12.676C19.3164 12.676 18.6024 13.012 18.0774 13.705C17.5314 14.377 17.2794 15.343 17.2794 16.561C17.2794 17.779 17.5314 18.745 18.0564 19.438C18.5394 20.11 19.2534 20.467 20.2194 20.467C21.8784 20.467 22.8024 19.627 23.0124 17.989H25.2174C24.9654 19.438 24.3984 20.53 23.5584 21.244C22.7184 21.937 21.5844 22.294 20.1984 22.294C18.5394 22.294 17.2584 21.748 16.3344 20.656C15.4314 19.606 14.9904 18.262 14.9904 16.582C14.9904 14.944 15.4314 13.6 16.3134 12.55C17.2584 11.416 18.5604 10.849 20.2404 10.849ZM31.9504 10.849C33.3364 10.849 34.4494 11.164 35.2894 11.794C36.1294 12.466 36.6754 13.474 36.8854 14.818H34.6804C34.5334 14.083 34.2394 13.537 33.7774 13.201C33.3154 12.844 32.7064 12.676 31.9504 12.676C31.0264 12.676 30.3124 13.012 29.7874 13.705C29.2414 14.377 28.9894 15.343 28.9894 16.561C28.9894 17.779 29.2414 18.745 29.7664 19.438C30.2494 20.11 30.9634 20.467 31.9294 20.467C33.5884 20.467 34.5124 19.627 34.7224 17.989H36.9274C36.6754 19.438 36.1084 20.53 35.2684 21.244C34.4284 21.937 33.2944 22.294 31.9084 22.294C30.2494 22.294 28.9684 21.748 28.0444 20.656C27.1414 19.606 26.7004 18.262 26.7004 16.582C26.7004 14.944 27.1414 13.6 28.0234 12.55C28.9684 11.416 30.2704 10.849 31.9504 10.849ZM43.4293 10.849C45.1933 10.849 46.5583 11.437 47.4823 12.655C48.3223 13.747 48.7633 15.259 48.7843 17.191H40.5523C40.6363 18.241 40.9093 19.06 41.4133 19.627C41.9173 20.173 42.6103 20.467 43.4923 20.467C44.2693 20.467 44.8993 20.278 45.3823 19.921C45.7603 19.627 46.0753 19.144 46.3693 18.514H48.5953C48.3433 19.522 47.8603 20.383 47.1043 21.055C46.1593 21.874 44.9623 22.294 43.5133 22.294C41.9173 22.294 40.6363 21.79 39.7123 20.803C38.7043 19.753 38.2003 18.346 38.2003 16.561C38.2003 14.944 38.6623 13.6 39.6283 12.508C40.5523 11.395 41.8333 10.849 43.4293 10.849ZM43.4923 12.676C42.6523 12.676 42.0013 12.907 41.4973 13.411C41.0353 13.894 40.7203 14.587 40.5943 15.511H46.4533C46.2433 13.621 45.2563 12.676 43.4923 12.676ZM54.7368 10.849C57.5508 10.849 59.1048 11.983 59.3568 14.272H57.1938C57.0258 13.684 56.7738 13.285 56.4168 13.054C56.0388 12.802 55.4508 12.676 54.6948 12.676C54.0228 12.676 53.5188 12.76 53.1828 12.97C52.7838 13.18 52.5948 13.516 52.5948 13.936C52.5948 14.314 52.8888 14.629 53.4768 14.902C53.8548 15.07 54.5688 15.28 55.6608 15.553C56.8998 15.847 57.8238 16.204 58.4118 16.582C59.2728 17.128 59.7138 17.884 59.7138 18.85C59.7138 21.139 58.0968 22.294 54.8838 22.294C51.9018 22.294 50.3058 21.013 50.0538 18.493H52.2378C52.3638 19.228 52.6368 19.753 53.0148 20.047C53.3928 20.32 53.9808 20.467 54.8208 20.467C56.5428 20.467 57.4248 19.963 57.4248 18.997C57.4248 18.472 57.0888 18.052 56.4588 17.758C56.1228 17.59 55.3878 17.38 54.2748 17.128C52.9938 16.834 52.0908 16.519 51.5868 16.183C50.7468 15.658 50.3268 14.923 50.3268 13.999C50.3268 13.012 50.7258 12.235 51.5448 11.689C52.3638 11.122 53.4348 10.849 54.7368 10.849ZM65.647 10.849C68.461 10.849 70.015 11.983 70.267 14.272H68.104C67.936 13.684 67.684 13.285 67.327 13.054C66.949 12.802 66.361 12.676 65.605 12.676C64.933 12.676 64.429 12.76 64.093 12.97C63.694 13.18 63.505 13.516 63.505 13.936C63.505 14.314 63.799 14.629 64.387 14.902C64.765 15.07 65.479 15.28 66.571 15.553C67.81 15.847 68.734 16.204 69.322 16.582C70.183 17.128 70.624 17.884 70.624 18.85C70.624 21.139 69.007 22.294 65.794 22.294C62.812 22.294 61.216 21.013 60.964 18.493H63.148C63.274 19.228 63.547 19.753 63.925 20.047C64.303 20.32 64.891 20.467 65.731 20.467C67.453 20.467 68.335 19.963 68.335 18.997C68.335 18.472 67.999 18.052 67.369 17.758C67.033 17.59 66.298 17.38 65.185 17.128C63.904 16.834 63.001 16.519 62.497 16.183C61.657 15.658 61.237 14.923 61.237 13.999C61.237 13.012 61.636 12.235 62.455 11.689C63.274 11.122 64.345 10.849 65.647 10.849ZM82.7943 7.636V11.143H85.2723V12.991H82.7943V19.291C82.7943 19.585 82.8573 19.795 82.9833 19.942C83.1093 20.068 83.2983 20.152 83.5713 20.152H84.9993V22H83.2143C82.2903 22 81.5973 21.748 81.1773 21.265C80.7573 20.803 80.5683 20.152 80.5683 19.291V12.991H78.5523V11.143H80.5683V8.56L82.7943 7.636ZM92.0627 10.849C93.7007 10.849 95.0237 11.395 96.0107 12.487C96.9767 13.558 97.4807 14.923 97.4807 16.582C97.4807 18.22 96.9977 19.585 96.0317 20.635C95.0237 21.727 93.7007 22.294 92.0627 22.294C90.4247 22.294 89.1017 21.727 88.0937 20.635C87.1277 19.585 86.6447 18.22 86.6447 16.582C86.6447 14.923 87.1277 13.558 88.1147 12.487C89.1017 11.395 90.4247 10.849 92.0627 10.849ZM92.0627 12.676C91.0337 12.676 90.2357 13.075 89.6687 13.894C89.1647 14.587 88.9337 15.49 88.9337 16.582C88.9337 17.674 89.1647 18.556 89.6687 19.249C90.2357 20.047 91.0337 20.467 92.0627 20.467C93.0917 20.467 93.8897 20.047 94.4777 19.249C94.9817 18.535 95.2337 17.653 95.2337 16.582C95.2337 15.49 94.9817 14.587 94.4777 13.894C93.8897 13.075 93.0917 12.676 92.0627 12.676ZM106.798 7.006H109.108L116.773 18.157H116.857V7.006H119.146V22H116.92L109.171 10.723H109.087V22H106.798V7.006ZM126.78 10.849C128.376 10.849 129.552 11.248 130.308 12.046C130.959 12.739 131.295 13.747 131.295 15.07V22H129.237V20.467C128.817 21.013 128.292 21.454 127.662 21.769C126.948 22.105 126.108 22.294 125.142 22.294C124.008 22.294 123.126 22 122.496 21.433C121.803 20.866 121.467 20.131 121.467 19.228C121.467 18.01 121.95 17.065 122.916 16.414C123.798 15.784 125.058 15.469 126.654 15.427L129.09 15.364V14.923C129.09 13.411 128.271 12.655 126.633 12.655C125.94 12.655 125.373 12.781 124.953 13.033C124.449 13.327 124.134 13.768 124.008 14.377L121.803 14.188C122.034 13.012 122.622 12.13 123.546 11.584C124.344 11.08 125.436 10.849 126.78 10.849ZM129.09 16.981L126.801 17.044C124.764 17.086 123.756 17.8 123.756 19.144C123.756 19.564 123.924 19.9 124.281 20.173C124.617 20.446 125.079 20.593 125.646 20.593C126.591 20.593 127.389 20.299 128.061 19.732C128.733 19.165 129.09 18.451 129.09 17.611V16.981ZM137.14 7.636V11.143H139.618V12.991H137.14V19.291C137.14 19.585 137.203 19.795 137.329 19.942C137.455 20.068 137.644 20.152 137.917 20.152H139.345V22H137.56C136.636 22 135.943 21.748 135.523 21.265C135.103 20.803 134.914 20.152 134.914 19.291V12.991H132.898V11.143H134.914V8.56L137.14 7.636ZM142.985 6.796C143.426 6.796 143.804 6.922 144.098 7.216C144.392 7.489 144.539 7.846 144.539 8.287C144.539 8.728 144.371 9.085 144.077 9.379C143.783 9.652 143.405 9.799 142.985 9.799C142.544 9.799 142.187 9.652 141.893 9.379C141.599 9.085 141.452 8.707 141.452 8.287C141.452 7.846 141.599 7.489 141.893 7.216C142.187 6.922 142.544 6.796 142.985 6.796ZM141.872 11.143H144.098V22H141.872V11.143ZM152.11 10.849C153.748 10.849 155.071 11.395 156.058 12.487C157.024 13.558 157.528 14.923 157.528 16.582C157.528 18.22 157.045 19.585 156.079 20.635C155.071 21.727 153.748 22.294 152.11 22.294C150.472 22.294 149.149 21.727 148.141 20.635C147.175 19.585 146.692 18.22 146.692 16.582C146.692 14.923 147.175 13.558 148.162 12.487C149.149 11.395 150.472 10.849 152.11 10.849ZM152.11 12.676C151.081 12.676 150.283 13.075 149.716 13.894C149.212 14.587 148.981 15.49 148.981 16.582C148.981 17.674 149.212 18.556 149.716 19.249C150.283 20.047 151.081 20.467 152.11 20.467C153.139 20.467 153.937 20.047 154.525 19.249C155.029 18.535 155.281 17.653 155.281 16.582C155.281 15.49 155.029 14.587 154.525 13.894C153.937 13.075 153.139 12.676 152.11 12.676ZM165.144 10.849C167.832 10.849 169.197 12.319 169.197 15.301V22H166.971V15.49C166.971 13.642 166.11 12.718 164.43 12.718C163.8 12.718 163.233 12.928 162.771 13.39C162.267 13.894 161.952 14.587 161.868 15.469V22H159.642V11.143H161.868V12.487C162.288 11.941 162.771 11.542 163.317 11.269C163.863 10.975 164.472 10.849 165.144 10.849ZM176.634 10.849C178.23 10.849 179.406 11.248 180.162 12.046C180.813 12.739 181.149 13.747 181.149 15.07V22H179.091V20.467C178.671 21.013 178.146 21.454 177.516 21.769C176.802 22.105 175.962 22.294 174.996 22.294C173.862 22.294 172.98 22 172.35 21.433C171.657 20.866 171.321 20.131 171.321 19.228C171.321 18.01 171.804 17.065 172.77 16.414C173.652 15.784 174.912 15.469 176.508 15.427L178.944 15.364V14.923C178.944 13.411 178.125 12.655 176.487 12.655C175.794 12.655 175.227 12.781 174.807 13.033C174.303 13.327 173.988 13.768 173.862 14.377L171.657 14.188C171.888 13.012 172.476 12.13 173.4 11.584C174.198 11.08 175.29 10.849 176.634 10.849ZM178.944 16.981L176.655 17.044C174.618 17.086 173.61 17.8 173.61 19.144C173.61 19.564 173.778 19.9 174.135 20.173C174.471 20.446 174.933 20.593 175.5 20.593C176.445 20.593 177.243 20.299 177.915 19.732C178.587 19.165 178.944 18.451 178.944 17.611V16.981ZM183.95 6.712H186.176V22H183.95V6.712ZM196.193 7.006H198.461V22H196.193V7.006ZM209.044 6.712H211.27V22H209.191V20.698C208.435 21.748 207.301 22.294 205.831 22.294C204.235 22.294 202.975 21.727 202.072 20.593C201.232 19.543 200.812 18.178 200.812 16.519C200.812 14.923 201.211 13.6 202.051 12.55C202.933 11.416 204.172 10.849 205.726 10.849C207.049 10.849 208.162 11.479 209.044 12.76V6.712ZM206.23 12.655C205.138 12.655 204.319 13.012 203.794 13.768C203.332 14.398 203.101 15.322 203.101 16.519C203.101 17.716 203.311 18.64 203.752 19.312C204.256 20.089 205.075 20.488 206.167 20.488C207.133 20.488 207.868 20.089 208.414 19.333C208.876 18.64 209.107 17.758 209.107 16.666V16.477C209.107 15.301 208.813 14.356 208.267 13.642C207.721 12.97 207.049 12.655 206.23 12.655ZM218.381 10.849C220.145 10.849 221.51 11.437 222.434 12.655C223.274 13.747 223.715 15.259 223.736 17.191H215.504C215.588 18.241 215.861 19.06 216.365 19.627C216.869 20.173 217.562 20.467 218.444 20.467C219.221 20.467 219.851 20.278 220.334 19.921C220.712 19.627 221.027 19.144 221.321 18.514H223.547C223.295 19.522 222.812 20.383 222.056 21.055C221.111 21.874 219.914 22.294 218.465 22.294C216.869 22.294 215.588 21.79 214.664 20.803C213.656 19.753 213.152 18.346 213.152 16.561C213.152 14.944 213.614 13.6 214.58 12.508C215.504 11.395 216.785 10.849 218.381 10.849ZM218.444 12.676C217.604 12.676 216.953 12.907 216.449 13.411C215.987 13.894 215.672 14.587 215.546 15.511H221.405C221.195 13.621 220.208 12.676 218.444 12.676ZM231.138 10.849C233.826 10.849 235.191 12.319 235.191 15.301V22H232.965V15.49C232.965 13.642 232.104 12.718 230.424 12.718C229.794 12.718 229.227 12.928 228.765 13.39C228.261 13.894 227.946 14.587 227.862 15.469V22H225.636V11.143H227.862V12.487C228.282 11.941 228.765 11.542 229.311 11.269C229.857 10.975 230.466 10.849 231.138 10.849ZM241.033 7.636V11.143H243.511V12.991H241.033V19.291C241.033 19.585 241.096 19.795 241.222 19.942C241.348 20.068 241.537 20.152 241.81 20.152H243.238V22H241.453C240.529 22 239.836 21.748 239.416 21.265C238.996 20.803 238.807 20.152 238.807 19.291V12.991H236.791V11.143H238.807V8.56L241.033 7.636ZM246.878 6.796C247.319 6.796 247.697 6.922 247.991 7.216C248.285 7.489 248.432 7.846 248.432 8.287C248.432 8.728 248.264 9.085 247.97 9.379C247.676 9.652 247.298 9.799 246.878 9.799C246.437 9.799 246.08 9.652 245.786 9.379C245.492 9.085 245.345 8.707 245.345 8.287C245.345 7.846 245.492 7.489 245.786 7.216C246.08 6.922 246.437 6.796 246.878 6.796ZM245.765 11.143H247.991V22H245.765V11.143ZM254.301 7.636V11.143H256.779V12.991H254.301V19.291C254.301 19.585 254.364 19.795 254.49 19.942C254.616 20.068 254.805 20.152 255.078 20.152H256.506V22H254.721C253.797 22 253.104 21.748 252.684 21.265C252.264 20.803 252.075 20.152 252.075 19.291V12.991H250.059V11.143H252.075V8.56L254.301 7.636ZM257.417 11.143H259.832L262.814 19.06L265.67 11.143H268.106L262.205 26.158H259.832L261.722 21.748L257.417 11.143ZM272.38 4.633H274.249C273.367 6.061 272.695 7.51 272.233 8.98C271.603 10.786 271.309 12.613 271.309 14.44C271.309 16.246 271.603 18.073 272.233 19.9C272.695 21.349 273.367 22.798 274.249 24.247H272.38C271.393 22.861 270.637 21.433 270.112 19.963C269.461 18.178 269.146 16.351 269.146 14.461C269.146 12.55 269.461 10.702 270.112 8.938C270.637 7.426 271.393 5.998 272.38 4.633ZM276.664 7.006H278.974L286.639 18.157H286.723V7.006H289.012V22H286.786L279.037 10.723H278.953V22H276.664V7.006ZM292.005 6.712H294.231V22H292.005V6.712ZM297.213 7.006H302.673C305.088 7.006 306.915 7.678 308.175 9.043C309.351 10.303 309.939 12.13 309.939 14.503C309.939 16.855 309.33 18.682 308.133 19.984C306.873 21.328 305.046 22 302.631 22H297.213V7.006ZM299.502 8.959V20.047H302.211C304.101 20.047 305.508 19.585 306.39 18.682C307.251 17.779 307.692 16.393 307.692 14.503C307.692 12.571 307.251 11.185 306.411 10.303C305.529 9.4 304.143 8.959 302.253 8.959H299.502ZM311.741 4.633H313.61C314.576 5.998 315.332 7.426 315.878 8.938C316.508 10.702 316.844 12.55 316.844 14.461C316.844 16.351 316.508 18.178 315.878 19.963C315.332 21.433 314.576 22.861 313.61 24.247H311.741C312.602 22.798 313.274 21.349 313.757 19.9C314.366 18.073 314.681 16.246 314.681 14.44C314.681 12.613 314.366 10.786 313.757 8.98C313.274 7.51 312.602 6.061 311.741 4.633ZM331.502 6.712C333.245 6.712 334.61 7.069 335.597 7.825C336.647 8.602 337.235 9.799 337.382 11.437H335.114C334.904 10.471 334.526 9.757 333.938 9.337C333.35 8.896 332.51 8.686 331.376 8.686C330.389 8.686 329.633 8.833 329.108 9.127C328.457 9.463 328.142 10.009 328.142 10.765C328.142 11.437 328.499 11.962 329.255 12.361C329.591 12.55 330.452 12.865 331.859 13.285C333.875 13.915 335.198 14.398 335.786 14.755C337.067 15.532 337.718 16.603 337.718 17.989C337.718 19.333 337.193 20.383 336.143 21.16C335.093 21.916 333.623 22.294 331.733 22.294C329.906 22.294 328.478 21.916 327.449 21.202C326.21 20.32 325.538 18.934 325.412 17.044H327.68C327.848 18.22 328.268 19.081 328.94 19.585C329.549 20.047 330.473 20.278 331.733 20.278C332.867 20.278 333.77 20.068 334.442 19.69C335.114 19.312 335.45 18.787 335.45 18.115C335.45 17.275 334.967 16.624 334.022 16.141C333.686 15.973 332.699 15.637 331.04 15.133C329.192 14.545 328.058 14.146 327.596 13.894C326.441 13.201 325.874 12.193 325.874 10.891C325.874 9.568 326.42 8.539 327.533 7.783C328.583 7.069 329.906 6.712 331.502 6.712ZM344.238 10.849C346.002 10.849 347.367 11.437 348.291 12.655C349.131 13.747 349.572 15.259 349.593 17.191H341.361C341.445 18.241 341.718 19.06 342.222 19.627C342.726 20.173 343.419 20.467 344.301 20.467C345.078 20.467 345.708 20.278 346.191 19.921C346.569 19.627 346.884 19.144 347.178 18.514H349.404C349.152 19.522 348.669 20.383 347.913 21.055C346.968 21.874 345.771 22.294 344.322 22.294C342.726 22.294 341.445 21.79 340.521 20.803C339.513 19.753 339.009 18.346 339.009 16.561C339.009 14.944 339.471 13.6 340.437 12.508C341.361 11.395 342.642 10.849 344.238 10.849ZM344.301 12.676C343.461 12.676 342.81 12.907 342.306 13.411C341.844 13.894 341.529 14.587 341.403 15.511H347.262C347.052 13.621 346.065 12.676 344.301 12.676ZM356.532 10.849C357.078 10.849 357.561 10.933 357.939 11.122V13.348C357.393 13.18 356.868 13.117 356.364 13.117C355.692 13.117 355.083 13.39 354.558 13.936C353.991 14.524 353.718 15.301 353.718 16.246V22H351.492V11.143H353.718V12.781C353.991 12.193 354.348 11.752 354.768 11.458C355.272 11.038 355.86 10.849 356.532 10.849ZM358.151 11.143H360.566L363.296 19.228L366.026 11.143H368.441L364.409 22H362.183L358.151 11.143ZM371.381 6.796C371.822 6.796 372.2 6.922 372.494 7.216C372.788 7.489 372.935 7.846 372.935 8.287C372.935 8.728 372.767 9.085 372.473 9.379C372.179 9.652 371.801 9.799 371.381 9.799C370.94 9.799 370.583 9.652 370.289 9.379C369.995 9.085 369.848 8.707 369.848 8.287C369.848 7.846 369.995 7.489 370.289 7.216C370.583 6.922 370.94 6.796 371.381 6.796ZM370.268 11.143H372.494V22H370.268V11.143ZM380.337 10.849C381.723 10.849 382.836 11.164 383.676 11.794C384.516 12.466 385.062 13.474 385.272 14.818H383.067C382.92 14.083 382.626 13.537 382.164 13.201C381.702 12.844 381.093 12.676 380.337 12.676C379.413 12.676 378.699 13.012 378.174 13.705C377.628 14.377 377.376 15.343 377.376 16.561C377.376 17.779 377.628 18.745 378.153 19.438C378.636 20.11 379.35 20.467 380.316 20.467C381.975 20.467 382.899 19.627 383.109 17.989H385.314C385.062 19.438 384.495 20.53 383.655 21.244C382.815 21.937 381.681 22.294 380.295 22.294C378.636 22.294 377.355 21.748 376.431 20.656C375.528 19.606 375.087 18.262 375.087 16.582C375.087 14.944 375.528 13.6 376.41 12.55C377.355 11.416 378.657 10.849 380.337 10.849ZM391.816 10.849C393.58 10.849 394.945 11.437 395.869 12.655C396.709 13.747 397.15 15.259 397.171 17.191H388.939C389.023 18.241 389.296 19.06 389.8 19.627C390.304 20.173 390.997 20.467 391.879 20.467C392.656 20.467 393.286 20.278 393.769 19.921C394.147 19.627 394.462 19.144 394.756 18.514H396.982C396.73 19.522 396.247 20.383 395.491 21.055C394.546 21.874 393.349 22.294 391.9 22.294C390.304 22.294 389.023 21.79 388.099 20.803C387.091 19.753 386.587 18.346 386.587 16.561C386.587 14.944 387.049 13.6 388.015 12.508C388.939 11.395 390.22 10.849 391.816 10.849ZM391.879 12.676C391.039 12.676 390.388 12.907 389.884 13.411C389.422 13.894 389.107 14.587 388.981 15.511H394.84C394.63 13.621 393.643 12.676 391.879 12.676ZM403.124 10.849C405.938 10.849 407.492 11.983 407.744 14.272H405.581C405.413 13.684 405.161 13.285 404.804 13.054C404.426 12.802 403.838 12.676 403.082 12.676C402.41 12.676 401.906 12.76 401.57 12.97C401.171 13.18 400.982 13.516 400.982 13.936C400.982 14.314 401.276 14.629 401.864 14.902C402.242 15.07 402.956 15.28 404.048 15.553C405.287 15.847 406.211 16.204 406.799 16.582C407.66 17.128 408.101 17.884 408.101 18.85C408.101 21.139 406.484 22.294 403.271 22.294C400.289 22.294 398.693 21.013 398.441 18.493H400.625C400.751 19.228 401.024 19.753 401.402 20.047C401.78 20.32 402.368 20.467 403.208 20.467C404.93 20.467 405.812 19.963 405.812 18.997C405.812 18.472 405.476 18.052 404.846 17.758C404.51 17.59 403.775 17.38 402.662 17.128C401.381 16.834 400.478 16.519 399.974 16.183C399.134 15.658 398.714 14.923 398.714 13.999C398.714 13.012 399.113 12.235 399.932 11.689C400.751 11.122 401.822 10.849 403.124 10.849Z" fill="#161616"/>
<g filter="url(#filter0_i_9665_124528)">
<path d="M17.48 44.512C21.344 44.512 24.564 45.524 27.048 47.548C29.44 49.48 30.866 52.148 31.372 55.46H26.128C25.576 53.298 24.564 51.734 23.046 50.722C21.574 49.71 19.688 49.25 17.388 49.25C13.938 49.25 11.362 50.4 9.614 52.792C8.004 54.908 7.222 57.852 7.222 61.624C7.222 65.488 8.004 68.478 9.568 70.548C11.27 72.756 13.938 73.906 17.526 73.906C19.872 73.906 21.804 73.308 23.276 72.204C24.84 70.962 25.944 69.076 26.588 66.592H31.832C31.096 70.456 29.394 73.446 26.68 75.608C24.15 77.632 21.114 78.644 17.572 78.644C12.098 78.644 8.004 76.896 5.336 73.492C2.99 70.548 1.84 66.592 1.84 61.624C1.84 56.748 3.036 52.746 5.474 49.71C8.234 46.214 12.236 44.512 17.48 44.512ZM51.4934 44.512C56.5074 44.512 60.4634 46.122 63.3614 49.388C66.1214 52.47 67.5014 56.564 67.5014 61.624C67.5014 66.684 66.1214 70.732 63.3614 73.814C60.4634 77.034 56.5074 78.644 51.4934 78.644C46.4334 78.644 42.4774 76.988 39.6254 73.768C36.8654 70.64 35.5314 66.592 35.5314 61.624C35.5314 56.61 36.8654 52.562 39.6254 49.434C42.4774 46.122 46.4334 44.512 51.4934 44.512ZM51.4934 49.25C48.0894 49.25 45.4674 50.4 43.5814 52.7C41.7874 54.908 40.9134 57.852 40.9134 61.624C40.9134 65.35 41.7874 68.294 43.5814 70.502C45.4214 72.756 48.0894 73.906 51.4934 73.906C54.8974 73.906 57.5194 72.802 59.3594 70.64C61.1534 68.478 62.0734 65.488 62.0734 61.624C62.0734 57.76 61.1534 54.724 59.3594 52.516C57.5194 50.308 54.8974 49.25 51.4934 49.25ZM72.5794 45.156H77.9614L94.1994 68.846H94.3834V45.156H99.8114V78H94.5674L78.1454 53.988H77.9614V78H72.5794V45.156ZM103.281 45.156H109.123L118.139 71.928H118.277L127.293 45.156H133.135L121.451 78H114.965L103.281 45.156ZM136.593 45.156H160.283V49.756H141.975V58.864H159.179V63.464H141.975V73.4H161.065V78H136.593V45.156ZM166.107 45.156H171.489L187.727 68.846H187.911V45.156H193.339V78H188.095L171.673 53.988H171.489V78H166.107V45.156ZM199.798 45.156H205.18V78H199.798V45.156ZM211.613 45.156H235.303V49.756H216.995V58.864H234.199V63.464H216.995V73.4H236.085V78H211.613V45.156ZM241.126 45.156H246.508L262.746 68.846H262.93V45.156H268.358V78H263.114L246.692 53.988H246.508V78H241.126V45.156ZM272.288 45.156H299.198V49.756H288.434V78H283.052V49.756H272.288V45.156ZM329.569 48.606C328.373 48.606 327.545 48.882 326.993 49.434C326.441 49.94 326.165 50.722 326.165 51.734C326.165 52.47 326.579 53.436 327.453 54.678C327.867 55.276 328.419 55.92 329.063 56.656C331.639 55.138 332.973 53.574 332.973 51.918C332.973 50.906 332.651 50.124 332.053 49.526C331.455 48.882 330.627 48.606 329.569 48.606ZM324.739 59.094C323.405 57.622 322.485 56.472 321.979 55.598C321.197 54.356 320.829 53.114 320.829 51.872C320.829 49.572 321.703 47.732 323.497 46.398C325.107 45.11 327.177 44.512 329.707 44.512C332.053 44.512 334.031 45.064 335.641 46.214C337.435 47.502 338.355 49.296 338.355 51.596C338.355 54.264 336.975 56.518 334.215 58.404C333.433 58.818 332.651 59.278 331.915 59.738L338.263 66.5C339.091 64.338 339.597 61.762 339.781 58.772H345.117C344.979 63.464 344.013 67.42 342.219 70.686L349.073 78H342.311L339.229 74.688C336.515 77.31 333.111 78.644 328.971 78.644C325.475 78.644 322.669 77.862 320.599 76.39C318.207 74.642 317.057 72.112 317.057 68.8C317.057 65.764 318.437 63.234 321.197 61.164C321.243 61.072 322.439 60.382 324.739 59.094ZM328.741 73.906C331.593 73.906 333.893 72.894 335.733 70.916L327.545 62.176L326.579 62.728C325.291 63.556 324.279 64.43 323.635 65.396C322.807 66.454 322.439 67.604 322.439 68.892C322.439 70.456 323.037 71.698 324.325 72.618C325.475 73.446 326.947 73.906 328.741 73.906ZM368.3 45.156H391.99V49.756H373.682V58.864H390.886V63.464H373.682V73.4H392.772V78H368.3V45.156ZM407.152 45.156H413.27L425.828 78H420.078L417.088 69.766H403.334L400.344 78H394.594L407.152 45.156ZM404.944 65.35H415.478L410.326 50.952H410.142L404.944 65.35ZM440.626 44.512C444.49 44.512 447.526 45.294 449.688 46.904C451.988 48.606 453.322 51.274 453.644 54.862H448.308C447.848 52.838 446.974 51.366 445.778 50.492C444.582 49.572 442.742 49.158 440.35 49.158C438.28 49.158 436.716 49.434 435.612 50.032C434.232 50.722 433.588 51.872 433.588 53.436C433.588 54.816 434.324 55.966 435.888 56.794C436.578 57.162 438.464 57.852 441.5 58.818C445.962 60.198 448.814 61.302 450.102 62.038C452.954 63.74 454.38 66.086 454.38 69.122C454.38 72.066 453.23 74.412 450.93 76.114C448.63 77.77 445.364 78.644 441.178 78.644C437.13 78.644 433.956 77.862 431.702 76.298C428.942 74.366 427.424 71.33 427.194 67.144H432.53C432.898 69.628 433.772 71.422 435.198 72.48C436.486 73.4 438.464 73.906 441.178 73.906C443.57 73.906 445.502 73.492 446.882 72.71C448.262 71.882 448.998 70.824 448.998 69.444C448.998 67.696 447.94 66.316 445.916 65.304C445.272 64.982 443.156 64.246 439.522 63.142C435.474 61.854 432.944 60.934 431.978 60.382C429.448 58.864 428.206 56.656 428.206 53.758C428.206 50.86 429.402 48.56 431.886 46.904C434.186 45.294 437.084 44.512 440.626 44.512ZM458.997 45.156H464.379V78H458.997V45.156ZM470.812 45.156H494.502V49.756H476.194V58.864H493.398V63.464H476.194V73.4H495.284V78H470.812V45.156ZM500.325 45.156H514.953C518.311 45.156 520.979 45.892 522.911 47.41C524.935 49.066 525.993 51.458 525.993 54.586C525.993 56.288 525.533 57.806 524.613 59.14C523.601 60.612 522.175 61.578 520.427 62.038V62.13C523.279 62.774 524.889 64.66 525.257 67.88L525.809 73.17C525.993 75.194 526.683 76.804 527.787 78H521.945C521.163 76.988 520.703 75.562 520.519 73.722L520.105 69.674C519.921 67.88 519.369 66.592 518.449 65.81C517.483 64.982 516.057 64.614 514.217 64.614H505.707V78H500.325V45.156ZM505.707 49.756V60.014H514.217C516.333 60.014 517.943 59.554 519.047 58.68C520.059 57.76 520.565 56.472 520.565 54.816C520.565 53.022 520.059 51.734 519.047 50.952C518.035 50.124 516.425 49.756 514.217 49.756H505.707Z" fill="url(#paint0_linear_9665_124528)"/>
</g>
<g clip-path="url(#clip0_9665_124528)">
<path d="M437.442 210.068C437.442 269.289 237.11 371.406 162.564 371.406C88.019 371.406 55.7962 290.737 29.5597 259.256C-12.1845 199.246 28.9053 131.366 103.451 131.366C177.996 131.366 437.442 150.846 437.442 210.068Z" fill="#FF9361" fill-opacity="0.54"/>
<rect x="210.219" y="122.513" width="126.109" height="192.818" rx="18.3909" fill="#FFBA9A"/>
<ellipse cx="275.246" cy="218.922" rx="49.2614" ry="49.1884" fill="white"/>
<ellipse cx="163.914" cy="408.51" rx="58.1284" ry="6.88637" fill="#C54C14" fill-opacity="0.28"/>
<path d="M265.394 219.906C272.488 215.971 270.32 209.085 268.35 206.134C272.947 202.854 281.946 198.657 281.158 208.101C280.369 217.545 285.427 220.562 288.054 220.89L292.98 228.76L261.453 230.728L265.394 219.906Z" fill="#FEE2E8"/>
<path d="M316.626 155.961V171.701H312.685V159.896H300.861V155.961H316.626Z" fill="#EE6425"/>
<path d="M316.625 275.98L300.861 275.98L300.861 272.046L312.685 272.046L312.685 260.24L316.625 260.24L316.625 275.98Z" fill="#EE6425"/>
<path d="M229.926 272.045L229.927 272.045L229.927 260.24L233.868 260.24L233.868 272.045L245.689 272.045L245.689 275.98L229.926 275.98L229.926 272.045Z" fill="#EE6425"/>
<path d="M229.926 155.96L245.689 155.96L245.689 159.896L233.866 159.896L233.866 171.7L229.926 171.7L229.926 155.96Z" fill="#EE6425"/>
<path d="M280.174 165.799C293.967 174.653 291.01 190.393 287.07 195.312C282.472 197.935 268.282 204.588 263.424 196.296C251.582 176.083 275.246 169.734 280.174 165.799Z" fill="#161616"/>
<path d="M287.067 195.312C287.067 204.005 284.112 211.052 275.245 211.052C266.378 211.052 263.422 204.005 263.422 195.312C263.422 186.618 263.422 179.571 275.245 179.571C287.56 179.571 287.067 186.618 287.067 195.312Z" fill="#FEE2E8"/>
<rect x="249.629" y="283.851" width="45.3205" height="3.93507" rx="1.96754" fill="#F5A27C"/>
<rect x="235.836" y="293.688" width="72.9068" height="3.93507" rx="1.96754" fill="#F5A27C"/>
<path d="M236.495 132.351C239.394 132.351 241.744 134.699 241.749 137.597H237.809V142.844H241.749C241.745 145.742 239.394 148.091 236.495 148.091H225.329C222.427 148.091 220.074 145.738 220.074 142.836V137.605C220.074 134.703 222.427 132.351 225.329 132.351H236.495Z" fill="#EE6425" fill-opacity="0.5"/>
<ellipse cx="286.082" cy="368.455" rx="71.9216" ry="3.93507" fill="#C54C14" fill-opacity="0.28"/>
<path d="M427.844 251.337C386.987 286.142 360.374 294.444 354.684 366.487C381.06 318.709 408.204 301.076 427.844 251.337Z" fill="#EE6425"/>
<path d="M424.94 213.258C381.211 264.609 347.31 275.949 354.68 366.487C377.84 301.93 410.531 278.904 424.94 213.258Z" fill="#F8763B"/>
<path d="M413.178 186.457C371.799 249.418 333.99 267.126 354.682 366.487C371.431 291.72 406.282 261.223 413.178 186.457Z" fill="#FFBD9F"/>
<path d="M18.1 369.438C59.4792 349.763 94.6384 358.521 103.472 411.221C58.4939 365.503 50.6121 400.919 18.1 369.438Z" fill="#FF9463"/>
<path d="M11.2031 268.907C62.4359 323.201 125.49 318.282 102.638 411.664C81.1547 342.876 11.2031 370.422 11.2031 268.907Z" fill="#FFBD9F"/>
<path d="M154.87 248.435C158.023 242.139 158.154 234.662 157.826 231.711C161.438 231.383 168.466 230.924 167.679 231.711C166.694 232.695 167.678 246.467 168.663 248.435C169.649 250.403 150.929 256.305 154.87 248.435Z" fill="#FEE2E8"/>
<path d="M171.62 236.631C180.486 212.036 165.38 207.774 157.827 211.053C156.185 215.971 153.689 227.186 156.841 232.695C159.994 238.204 168.007 237.614 171.62 236.631Z" fill="#FEE2E8"/>
<path d="M141.078 398.951L142.063 393.049H146.004L145.019 398.951H141.078Z" fill="#FEE2E8"/>
<path d="M183.441 395.016V389.113H179.5V395.016H183.441Z" fill="#FEE2E8"/>
<path d="M217.925 241.549C212.408 242.336 211.685 251.714 212.014 256.305L214.968 258.273C217.267 254.01 222.062 245.287 222.85 244.5C223.835 243.516 224.822 240.565 217.925 241.549Z" fill="white"/>
<path d="M128.574 318.186C125.066 315.164 127.203 309.046 129.255 306.478L132.21 306.477C132.107 310.068 132.924 317.887 133.157 318.718C133.449 319.758 132.959 321.963 128.574 318.186Z" fill="white"/>
<path d="M178.517 300.574L147.974 301.558C145.61 314.15 145.019 346.811 145.019 361.568L139.107 394.032H146.989C149.288 384.85 154.083 365.896 154.871 363.535C155.659 361.174 159.797 339.597 161.768 329.103L176.546 353.698L177.531 391.081H186.398L190.339 347.795L178.517 300.574Z" fill="#161616"/>
<path d="M215.955 257.288L212.014 255.321L192.309 266.142C183.639 242.532 172.276 241.22 167.679 243.516C162.161 249.812 158.155 246.139 156.841 243.516C139.501 245.09 133.196 267.126 132.21 277.948L128.27 307.461L133.196 306.477C133.984 299.394 143.376 278.603 147.974 269.094C151.915 275.39 148.959 294.016 146.989 302.542C155.659 312.773 172.934 306.149 180.487 301.558C178.911 296.049 179.83 277.62 180.487 269.094C182.129 273.029 187.384 280.505 195.266 278.931C203.147 277.357 212.343 263.847 215.955 257.288Z" fill="#EE6425"/>
<path d="M171.482 209.084C171.482 202.787 169.512 198.59 168.527 197.278C161.629 203.181 163.601 198.262 153.748 203.181C143.896 208.1 145.867 216.954 146.852 220.889C147.837 224.824 156.704 236.629 160.645 233.678C161.959 232.694 163.601 232.694 163.601 223.84C165.571 213.019 171.482 216.954 171.482 209.084Z" fill="#161616"/>
<path d="M140.092 409.773V397.968H146.003V401.903C146.003 403.87 149.944 404.854 149.944 406.822C149.944 408.396 147.974 409.445 146.988 409.773H140.092Z" fill="#161616"/>
<path d="M178.516 405.837V394.032H184.427C184.427 395.016 187.383 400.919 188.368 401.902C189.353 402.886 195.264 403.87 195.264 404.854C195.264 405.641 192.637 405.837 191.324 405.837H178.516Z" fill="#161616"/>
<path d="M287.068 219.905C292.651 221.217 304.408 226.202 306.772 235.646L309.081 254.666C300.257 262.999 288.35 268.11 275.246 268.11C262.555 268.11 250.987 263.317 242.254 255.445L244.703 234.662C246.017 232.039 251.994 225.414 265.393 219.905L266.378 228.759L285.098 227.775L287.068 219.905Z" fill="#EE6425"/>
</g>
<defs>
<filter id="filter0_i_9665_124528" x="1.83984" y="44.5117" width="525.947" height="35.1318" filterUnits="userSpaceOnUse" color-interpolation-filters="sRGB">
<feFlood flood-opacity="0" result="BackgroundImageFix"/>
<feBlend mode="normal" in="SourceGraphic" in2="BackgroundImageFix" result="shape"/>
<feColorMatrix in="SourceAlpha" type="matrix" values="0 0 0 0 0 0 0 0 0 0 0 0 0 0 0 0 0 0 127 0" result="hardAlpha"/>
<feOffset dy="1"/>
<feGaussianBlur stdDeviation="1"/>
<feComposite in2="hardAlpha" operator="arithmetic" k2="-1" k3="1"/>
<feColorMatrix type="matrix" values="0 0 0 0 0 0 0 0 0 0 0 0 0 0 0 0 0 0 0.15 0"/>
<feBlend mode="normal" in2="shape" result="effect1_innerShadow_9665_124528"/>
</filter>
<linearGradient id="paint0_linear_9665_124528" x1="361.679" y1="223.286" x2="139.069" y2="-34.4413" gradientUnits="userSpaceOnUse">
<stop offset="0.16053" stop-color="#EE6425"/>
<stop offset="1"/>
</linearGradient>
<clipPath id="clip0_9665_124528">
<rect width="450" height="337" fill="white" transform="translate(0 93)"/>
</clipPath>
</defs>
</svg>
