<svg width="176" height="55" viewBox="0 0 176 55" fill="none" xmlns="http://www.w3.org/2000/svg">
<rect x="0.735677" y="0.333333" width="174.93" height="54" rx="5" fill="white"/>
<rect x="0.735677" y="0.333333" width="174.93" height="54" rx="5" stroke="#DBDBDB" stroke-width="0.666667"/>
<path d="M36.8821 26.6645L24.5195 39.786C24.52 39.7887 24.5209 39.791 24.5214 39.7937C24.9005 41.2184 26.2019 42.2676 27.7464 42.2676C28.3638 42.2676 28.9434 42.1007 29.4405 41.8076L29.48 41.7845L43.3957 33.7546L36.8821 26.6645Z" fill="#EB3131"/>
<path d="M49.3896 24.4308L49.3778 24.4227L43.37 20.9399L36.6016 26.9628L43.3936 33.7539L49.3697 30.3058C50.4174 29.7401 51.1286 28.6356 51.1286 27.3619C51.1286 26.0974 50.4269 24.9983 49.3896 24.4308Z" fill="#F6B60B"/>
<path d="M24.5196 14.8812C24.4453 15.1552 24.4062 15.4423 24.4062 15.7404V38.9265C24.4062 39.2241 24.4448 39.5121 24.5201 39.7852L37.3082 26.9994L24.5196 14.8812Z" fill="#5778C5"/>
<path d="M36.9738 27.334L43.3726 20.937L29.4727 12.8781C28.9675 12.5755 28.3778 12.4008 27.7468 12.4008C26.2023 12.4008 24.8992 13.4518 24.52 14.8784C24.5195 14.8798 24.5195 14.8807 24.5195 14.882L36.9738 27.334Z" fill="#3BAD49"/>
<path d="M67.0563 12.808C68.3443 12.808 69.3523 13.088 70.0943 13.662C70.8083 14.222 71.2563 15.048 71.4383 16.168H69.7863C69.6463 15.524 69.3383 15.048 68.8903 14.726C68.4283 14.404 67.8123 14.25 67.0563 14.25C66.1183 14.25 65.3763 14.558 64.8303 15.202C64.2283 15.874 63.9343 16.812 63.9343 18.044C63.9343 19.22 64.2003 20.13 64.7323 20.76C65.3063 21.432 66.2023 21.768 67.4203 21.768C67.8963 21.768 68.3443 21.712 68.7643 21.6C69.1563 21.488 69.5063 21.334 69.8423 21.138V19.08H67.1963V17.68H71.4803V21.908C70.9483 22.328 70.3463 22.636 69.6603 22.86C68.9323 23.084 68.1343 23.196 67.2383 23.196C65.6423 23.196 64.4103 22.692 63.5283 21.684C62.7023 20.746 62.2963 19.528 62.2963 18.044C62.2963 16.546 62.7023 15.314 63.5283 14.348C64.3963 13.312 65.5723 12.808 67.0563 12.808ZM76.2384 15.566C77.4284 15.566 78.3384 15.958 78.9684 16.77C79.5424 17.498 79.8364 18.52 79.8364 19.822H74.4184C74.4744 20.494 74.6564 21.012 74.9644 21.362C75.2724 21.712 75.7204 21.894 76.2944 21.894C76.7844 21.894 77.1764 21.782 77.4844 21.558C77.7224 21.376 77.9324 21.082 78.1284 20.676H79.7244C79.5564 21.348 79.2204 21.922 78.7164 22.37C78.0724 22.916 77.2744 23.196 76.3084 23.196C75.2304 23.196 74.3764 22.86 73.7464 22.202C73.0744 21.516 72.7384 20.578 72.7384 19.374C72.7384 18.296 73.0464 17.4 73.6904 16.672C74.3064 15.93 75.1604 15.566 76.2384 15.566ZM76.2804 16.868C75.7484 16.868 75.3424 17.008 75.0344 17.316C74.7404 17.61 74.5444 18.044 74.4464 18.618H78.1704C78.0304 17.442 77.4004 16.868 76.2804 16.868ZM83.3697 13.424V15.762H84.9797V17.078H83.3697V21.166C83.3697 21.334 83.3977 21.46 83.4817 21.558C83.5657 21.642 83.6777 21.684 83.8457 21.684H84.7977V23H83.5797C82.9497 23 82.4877 22.832 82.1937 22.496C81.9137 22.188 81.7737 21.754 81.7737 21.166V17.078H80.4717V15.762H81.7737V14.082L83.3697 13.424ZM91.9141 12.808C92.2221 12.808 92.4881 12.906 92.6981 13.102C92.8941 13.298 93.0061 13.55 93.0061 13.858C93.0061 14.166 92.8941 14.432 92.6841 14.628C92.4741 14.824 92.2221 14.922 91.9141 14.922C91.6061 14.922 91.3541 14.824 91.1441 14.628C90.9341 14.418 90.8361 14.166 90.8361 13.858C90.8361 13.55 90.9341 13.298 91.1441 13.102C91.3541 12.906 91.6061 12.808 91.9141 12.808ZM91.1161 15.762H92.7121V23H91.1161V15.762ZM96.9596 13.424V15.762H98.5696V17.078H96.9596V21.166C96.9596 21.334 96.9876 21.46 97.0716 21.558C97.1556 21.642 97.2676 21.684 97.4356 21.684H98.3876V23H97.1696C96.5396 23 96.0776 22.832 95.7836 22.496C95.5036 22.188 95.3636 21.754 95.3636 21.166V17.078H94.0616V15.762H95.3636V14.082L96.9596 13.424ZM107.786 15.566C108.878 15.566 109.76 15.916 110.432 16.644C111.09 17.358 111.426 18.268 111.426 19.388C111.426 20.494 111.09 21.404 110.446 22.104C109.774 22.832 108.878 23.196 107.786 23.196C106.68 23.196 105.798 22.832 105.126 22.104C104.468 21.404 104.146 20.494 104.146 19.388C104.146 18.268 104.468 17.358 105.14 16.644C105.798 15.916 106.68 15.566 107.786 15.566ZM107.786 16.868C107.114 16.868 106.61 17.12 106.246 17.652C105.938 18.1 105.784 18.688 105.784 19.388C105.784 20.088 105.938 20.662 106.246 21.11C106.61 21.628 107.114 21.894 107.786 21.894C108.444 21.894 108.962 21.628 109.326 21.11C109.634 20.648 109.802 20.074 109.802 19.388C109.802 18.688 109.634 18.1 109.326 17.652C108.962 17.12 108.444 16.868 107.786 16.868ZM116.558 15.566C118.364 15.566 119.274 16.546 119.274 18.534V23H117.678V18.674C117.678 17.484 117.132 16.896 116.04 16.896C115.648 16.896 115.298 17.036 115.004 17.316C114.668 17.624 114.472 18.072 114.416 18.646V23H112.82V15.762H114.416V16.602C114.696 16.266 115.018 16 115.368 15.832C115.732 15.65 116.124 15.566 116.558 15.566Z" fill="#EE6425"/>
<path d="M133.968 42.1978H136.013V28.4943H133.968V42.1978ZM152.391 33.4306L150.047 39.3717H149.977L147.543 33.4306H145.34L148.989 41.7344L146.908 46.3534H149.043L154.666 33.4306H152.391ZM140.792 40.6413C140.121 40.6413 139.187 40.3064 139.187 39.4775C139.187 38.4198 140.351 38.0143 141.355 38.0143C142.255 38.0143 142.677 38.2083 143.224 38.473C143.065 39.7421 141.972 40.6413 140.792 40.6413ZM141.038 33.1308C139.557 33.1308 138.024 33.7833 137.389 35.229L139.204 35.9869C139.592 35.229 140.315 34.9819 141.073 34.9819C142.131 34.9819 143.207 35.6169 143.224 36.7452V36.886C142.854 36.6745 142.061 36.3573 141.091 36.3573C139.134 36.3573 137.141 37.4324 137.141 39.4423C137.141 41.2759 138.746 42.4573 140.544 42.4573C141.92 42.4573 142.677 41.8402 143.154 41.1175H143.224V42.1751H145.198V36.9211C145.198 34.4886 143.383 33.1308 141.038 33.1308ZM128.397 35.0987H125.488V30.4015H128.397C129.926 30.4015 130.795 31.6676 130.795 32.7501C130.795 33.812 129.926 35.0987 128.397 35.0987ZM128.345 28.4943H123.444V42.1978H125.488V37.006H128.345C130.611 37.006 132.84 35.3647 132.84 32.7501C132.84 30.1356 130.611 28.4943 128.345 28.4943ZM101.619 40.6438C100.206 40.6438 99.0225 39.4607 99.0225 37.8358C99.0225 36.1937 100.206 34.9926 101.619 34.9926C103.014 34.9926 104.109 36.1937 104.109 37.8358C104.109 39.4607 103.014 40.6438 101.619 40.6438ZM103.967 34.1979H103.897C103.438 33.6506 102.554 33.1561 101.442 33.1561C99.1108 33.1561 96.9741 35.2045 96.9741 37.8358C96.9741 40.4495 99.1108 42.4804 101.442 42.4804C102.554 42.4804 103.438 41.9858 103.897 41.421H103.967V42.092C103.967 43.8759 103.014 44.8295 101.477 44.8295C100.224 44.8295 99.4465 43.9285 99.1283 43.1693L97.345 43.911C97.8571 45.1472 99.217 46.666 101.477 46.666C103.879 46.666 105.91 45.2529 105.91 41.8094V33.4387H103.967V34.1979ZM107.323 42.1978H109.371V28.4938H107.323V42.1978ZM112.391 37.6769C112.338 35.8755 113.786 34.9574 114.828 34.9574C115.641 34.9574 116.329 35.3633 116.559 35.9466L112.391 37.6769ZM118.749 36.123C118.361 35.0808 117.177 33.1561 114.757 33.1561C112.356 33.1561 110.36 35.0457 110.36 37.8182C110.36 40.432 112.338 42.4804 114.987 42.4804C117.124 42.4804 118.361 41.1735 118.873 40.4143L117.283 39.3545C116.754 40.1317 116.029 40.6438 114.987 40.6438C113.945 40.6438 113.204 40.1669 112.726 39.2312L118.96 36.6527L118.749 36.123ZM69.0829 34.5866V36.5644H73.8156C73.6743 37.6769 73.3035 38.4892 72.7383 39.0544C72.0498 39.7433 70.9725 40.5025 69.0829 40.5025C66.1689 40.5025 63.891 38.1539 63.891 35.24C63.891 32.3262 66.1689 29.9772 69.0829 29.9772C70.6547 29.9772 71.8023 30.5954 72.6501 31.3902L74.0452 29.9952C72.8621 28.8647 71.2902 27.9993 69.0829 27.9993C65.0916 27.9993 61.7363 31.2489 61.7363 35.24C61.7363 39.2312 65.0916 42.4804 69.0829 42.4804C71.2375 42.4804 72.8621 41.7743 74.1334 40.4495C75.4403 39.1426 75.8466 37.3061 75.8466 35.8229C75.8466 35.3633 75.8114 34.9399 75.7404 34.5866H69.0829ZM81.2273 40.6438C79.8142 40.6438 78.5956 39.4783 78.5956 37.8182C78.5956 36.1405 79.8142 34.9926 81.2273 34.9926C82.6399 34.9926 83.8585 36.1405 83.8585 37.8182C83.8585 39.4783 82.6399 40.6438 81.2273 40.6438ZM81.2273 33.1561C78.6487 33.1561 76.5471 35.1163 76.5471 37.8182C76.5471 40.5025 78.6487 42.4804 81.2273 42.4804C83.8054 42.4804 85.907 40.5025 85.907 37.8182C85.907 35.1163 83.8054 33.1561 81.2273 33.1561ZM91.4362 40.6438C90.0237 40.6438 88.805 39.4783 88.805 37.8182C88.805 36.1405 90.0237 34.9926 91.4362 34.9926C92.8489 34.9926 94.0675 36.1405 94.0675 37.8182C94.0675 39.4783 92.8489 40.6438 91.4362 40.6438ZM91.4362 33.1561C88.8577 33.1561 86.7565 35.1163 86.7565 37.8182C86.7565 40.5025 88.8577 42.4804 91.4362 42.4804C94.0144 42.4804 96.116 40.5025 96.116 37.8182C96.116 35.1163 94.0144 33.1561 91.4362 33.1561Z" fill="#161616"/>
</svg>
